<svg width="151" height="151" viewBox="0 0 151 151" fill="none" xmlns="http://www.w3.org/2000/svg">
<g filter="url(#filter0_d_425_79)">
<rect x="4" width="143" height="143" rx="50" fill="#1B1D24"/>
<path d="M72.5 18L16 47.4349V54.4634L72.5 86L120.929 58.9688V81.3623H129V47.4349L72.5 18ZM112.857 54.1971L104.786 58.7022L72.5 76.7246L40.2143 58.7022L32.1429 54.1971L26.5486 51.0744L72.5 27.135L118.451 51.0744L112.857 54.1971Z" fill="#5465FF"/>
<path d="M100.889 95.537L72.5 111.625L44.1111 95.537V78.5398L36 74V100.316L72.5 121L109 100.316V74L100.889 78.5398V95.537Z" fill="#5465FF"/>
</g>
<defs>
<filter id="filter0_d_425_79" x="0" y="0" width="151" height="151" filterUnits="userSpaceOnUse" color-interpolation-filters="sRGB">
<feFlood flood-opacity="0" result="BackgroundImageFix"/>
<feColorMatrix in="SourceAlpha" type="matrix" values="0 0 0 0 0 0 0 0 0 0 0 0 0 0 0 0 0 0 127 0" result="hardAlpha"/>
<feOffset dy="4"/>
<feGaussianBlur stdDeviation="2"/>
<feComposite in2="hardAlpha" operator="out"/>
<feColorMatrix type="matrix" values="0 0 0 0 0 0 0 0 0 0 0 0 0 0 0 0 0 0 0.25 0"/>
<feBlend mode="normal" in2="BackgroundImageFix" result="effect1_dropShadow_425_79"/>
<feBlend mode="normal" in="SourceGraphic" in2="effect1_dropShadow_425_79" result="shape"/>
</filter>
</defs>
</svg>
